<?xml version="1.0" standalone="no"?>
<!DOCTYPE svg PUBLIC "-//W3C//DTD SVG 20010904//EN"
 "http://www.w3.org/TR/2001/REC-SVG-20010904/DTD/svg10.dtd">
<svg version="1.0" xmlns="http://www.w3.org/2000/svg"
 width="300.000000pt" height="185.000000pt" viewBox="0 0 300.000000 185.000000"
 preserveAspectRatio="xMidYMid meet">

<g transform="translate(0.000000,185.000000) scale(0.100000,-0.100000)"
fill="#000000" stroke="none">
<path d="M1476 1774 c-3 -8 -85 -131 -183 -272 -97 -141 -205 -298 -240 -349
-35 -50 -63 -94 -63 -98 0 -3 12 3 28 14 50 37 467 284 478 284 6 0 116 -62
245 -138 129 -76 238 -140 243 -143 5 -3 -11 24 -36 59 -196 276 -448 642
-448 650 0 15 -17 10 -24 -7z"/>
<path d="M1247 1125 c-136 -83 -249 -154 -253 -157 -3 -4 59 -120 139 -260 79
-139 193 -339 253 -445 60 -106 112 -189 116 -185 23 23 496 888 489 895 -4 4
-118 74 -253 156 l-245 147 -246 -151z"/>
</g>
</svg>
